<?xml version="1.0" encoding="utf-8"?>
<!-- Generator: $$$/GeneralStr/196=Adobe Illustrator 27.6.0, SVG Export Plug-In . SVG Version: 6.00 Build 0)  -->
<svg version="1.1" id="Calque_2_00000132061892609378442310000002966557157060703144_"
	 xmlns="http://www.w3.org/2000/svg" xmlns:xlink="http://www.w3.org/1999/xlink" x="0px" y="0px" viewBox="0 0 353 39.3"
	 fill="#fff" xml:space="preserve">
<g id="Calque_1-2">
	<path d="M19.3,37.4c-0.1,0.7-0.5,0.9-1.2,1.1c-1.6,0.3-8.2,0.3-10.9,0.3c-4.6,0-8.5-3.3-6.8-9.5C2.6,20.9,8.1,0.2,8.1,0.2H15
		L7.4,28.9c-0.1,0.6-0.2,1.2-0.2,1.7c-0.2,2,0.7,2.6,3,2.6h9.3c0.3,0,0.9,0.2,0.7,1.1C19.8,35.6,19.3,37.4,19.3,37.4 M62.9,15.6
		c1.2,0,3.3,0.2,4.7,0.3L63,33.4c-1,0.2-3.1,0.3-4.9,0.3c-3.3,0-4.3-1.3-4.1-4c0-0.6,0.2-1.4,0.5-3.1c0.2-0.9,1-3.9,1-3.9
		C56.8,17.9,58.6,15.6,62.9,15.6 M78.4,0.2l-6.7,0L69,10.5c-1.8-0.2-3.5-0.3-4.7-0.3c-8,0-13.1,3.4-15.3,12.5c0,0-0.7,2.9-1,3.9
		c-0.4,1.8-0.4,2.2-0.5,2.8c-0.5,5.5,2.2,9.8,9.1,9.8c3.2,0,7.1-0.5,10.4-1.3c1.2-0.3,1.5-0.6,1.7-1.3L78.4,0.2z M88.9,15.6
		c3.3,0,4.3,1.5,4,4.2c0,0.9-0.2,1.8-0.6,2.9l-1,3.9c-1,3.7-2.9,7.1-7.3,7.1c-1.8,0-3.8-0.1-4.7-0.3L84,15.9
		C85.5,15.7,87.7,15.5,88.9,15.6 M99,22.7c0.3-1,0.4-2,0.5-3c0.4-5.7-2.3-9.5-9.2-9.5c-1.2,0-3,0.1-4.9,0.3l2.7-10.3h-6.6
		c0,0-8,30.4-9.6,36.6c-0.2,0.9,1,1.1,1.1,1.1c2.9,0.8,6.6,1.3,9.8,1.3C91,39.1,95.9,35,98,26.6L99,22.7 M130.3,15.8
		c2.9,0,4.2,1.6,3.9,4.6c-0.1,0.7-0.1,1.4-0.4,2.2l-1.1,4c-1.2,4.7-3.6,6.8-7.1,6.8c-2.9,0-4.3-1.6-4-4.6c0.1-0.4,0.1-0.9,0.6-2.6
		c0.2-1,1-3.6,1-3.6C124.5,17.7,127.2,15.8,130.3,15.8 M140.9,20c0.5-5.2-2.3-9.8-9.2-9.8c-7.9,0-13.1,4.2-15.3,12.5
		c0,0-0.6,2.3-0.9,3.5c-0.3,1.1-0.5,2.2-0.6,3c-0.5,5.3,2.3,10,9.2,10c7.9,0,13-4.2,15.2-12.5l1-3.9C140.7,21.7,140.9,20.9,140.9,20
		 M168.2,11.6c0.5-0.4,0.6-1.1-0.3-1.1h-6c-0.5,0-0.8,0.1-1.2,0.6l-10.9,10.8l5.8-21.7h-6.6c0,0-7,26.6-9.9,37.5
		c-0.1,0.5,0.1,1,0.8,1h4.6c0.5,0,1.2-0.5,1.3-1l3.1-11.9l5.1,11.9c0.2,0.5,0.6,1,1.2,1h5.7c0.4,0,1.1-0.4,0.7-1.2
		c-1.1-2.3-6.5-13.6-6.5-13.6L168.2,11.6 M178.6,15.8c2.7,0,4.1,1.6,3.9,4.5c-0.1,0.7-0.2,1.3-0.4,1.9h-10.7
		C172.4,18.6,174.5,15.8,178.6,15.8 M188.3,23.9c0.4-1.6,0.5-2,0.7-3.5c0.5-5.9-2.2-10.3-8.9-10.3c-7.7,0-12.9,3.5-15.5,12.8
		c0,0-0.4,1.4-0.8,2.9c-0.3,1.4-0.5,2.8-0.6,3.3c-0.6,7.6,4.6,10,9,10s6.7-0.2,10.1-0.8c1-0.1,1.1-0.5,1.4-1.3c0,0,1-4.1,1-4.2
		c-2.3,0.3-6.7,0.7-10.3,0.7s-5-1.8-4.8-4.5c0-0.7,0.2-1.4,0.4-2h16.3c0.7,0,1.1-0.4,1.3-1.2C187.8,25.7,188,25.1,188.3,23.9
		 M211.4,11.2c-2.7-0.7-5.7-1-8.8-1c-4.8,0-10.6,1.5-11.2,8.2c-0.2,2.4,0.9,4.6,2.7,6l5.7,4.2c1.2,0.8,1.5,1.7,1.4,2.5
		c-0.1,2.3-2.1,2.7-4.5,2.7c-1.1,0-5.6-0.2-8-0.5c-0.9-0.1-1.3,0.6-1.3,0.8l-0.8,3.1c-0.1,0.5,0.1,0.9,0.7,1c3,0.8,7.3,1,9,1
		c5.9,0,11.3-2.6,11.9-8.9c0.2-2.2-0.3-4.2-3.2-6.3l-5.5-4.1c-1-0.6-1.4-1.3-1.3-2c0.2-2.1,2.5-2.3,4-2.3c2,0,5.6,0.2,7.9,0.6
		c0.9,0.1,1.2-0.6,1.3-1l0.7-2.8C212.1,12.3,212.4,11.4,211.4,11.2 M119,11.1c0.2-0.8-0.5-1-0.7-1c-2.1,0-4.8,0.2-7.8,2.4l0.2-1
		c0.2-0.6-0.2-1-0.8-1h-4.4c-0.6,0-1.1,0.4-1.2,1c0,0-5.8,21.8-6.9,26c-0.2,0.7,0,1.2,0.8,1.2h4.5c0.6,0,1.2-0.5,1.3-1.1l5.3-20.1
		c3.6-1.7,5.8-1.8,7.4-1.8c0.5,0,1.1-0.4,1.2-1C118,14.8,118.6,12.5,119,11.1 M37.1,15.6c-4.3,0-6.2,3-7.3,7.1l-1.4,5.2
		c-0.2,0.8-0.3,1.5-0.4,2.1c-0.2,2.8,1.1,3.8,3.1,3.8s4.1-0.8,6.4-2.1l4.2-15.7C40.8,15.7,38.8,15.6,37.1,15.6 M49.1,12.9l-6.5,24.9
		c-0.2,0.5-0.8,1-1.2,1h-4c-0.6,0-0.8-0.4-0.7-0.9c0.2-0.8,0.3-1.5,0.3-1.5c-2.9,2.2-5.5,2.8-8,2.8c-4.6,0-7.9-3.1-7.4-9
		c0-0.4,0.3-1.7,0.6-3.1c0.4-1.6,0.8-3.3,1.1-4.3c2-7.8,7.2-12.5,15.3-12.5c3.2,0,7,0.5,9.9,1.4C49.2,11.7,49.3,12,49.1,12.9"/>
	<path d="M296.1,35.9c0,1.8-1.4,3.2-3.2,3.2s-3.2-1.4-3.2-3.2s1.4-3.2,3.2-3.2S296.1,34.1,296.1,35.9"/>
	<path d="M317.8,10.2c-1.2,0-3,0.1-4.9,0.3l2.7-10.3H309c0,0-8,30.4-9.6,36.6c-0.2,0.9,1,1.1,1.1,1.1c2.9,0.8,6.5,1.3,9.8,1.3
		c8.3,0,13.1-4.2,15.3-12.5l1-3.9c0.3-1,0.4-2,0.5-3C327.4,14,324.7,10.2,317.8,10.2 M320.4,19.8c0,0.9-0.2,1.8-0.5,2.9l-1,3.9
		c-1,3.7-3,7.1-7.3,7.1c-1.8,0-3.9-0.1-4.7-0.3l4.6-17.5c1.5-0.2,3.7-0.3,4.9-0.3C319.6,15.6,320.6,17.1,320.4,19.8"/>
	<path d="M344,10.2c-7.7,0-13,3.5-15.5,12.8c0,0-0.4,1.4-0.8,2.9c-0.3,1.4-0.5,2.8-0.6,3.3c-0.6,7.6,4.6,10,9,10s6.7-0.2,10.1-0.8
		c1-0.1,1.1-0.5,1.4-1.3c0,0,1-4.1,1-4.2c-2.3,0.3-6.7,0.7-10.3,0.7s-5-1.8-4.8-4.5c0-0.7,0.2-1.4,0.4-2h16.3c0.7,0,1.1-0.4,1.3-1.2
		c0,0,0.2-0.6,0.5-1.8c0.4-1.6,0.5-2,0.7-3.5C353.4,14.5,350.7,10.2,344,10.2 M346.5,20.3c-0.1,0.7-0.2,1.3-0.4,1.9h-10.7
		c1-3.6,3.1-6.4,7.1-6.4C345.3,15.8,346.7,17.4,346.5,20.3"/>
	<path d="M236.9,20.4l-4.6,17.3c-0.1,0.6-0.8,1.1-1.3,1.1h-4.7c-0.5,0-0.8-0.4-0.7-0.9c0-0.1,0-0.2,0-0.2l4.6-17.3
		c0.2-0.7,0.3-1.4,0.4-1.9c0.2-2.3-0.9-3.2-4.3-3.2c-1.9,0-3.7,0.1-5,0.5l-5.8,22c-0.1,0.6-0.8,1.1-1.3,1.1h-4.7
		c-0.5,0-0.8-0.4-0.7-0.9c0-0.1,0-0.2,0-0.2L218.5,1c0.1-0.6,0.7-1,1.3-1h4.7c0.5,0,0.8,0.4,0.8,0.9c0,0.1,0,0.1,0,0.1l-2.4,9.2
		c1.6-0.3,3.4-0.5,5-0.5c6.9,0,9.9,3.7,9.5,8.6C237.3,19,237.2,19.7,236.9,20.4L236.9,20.4z"/>
	<path d="M266.2,11.1l-7,26.7c-0.1,0.6-0.7,1-1.3,1h-4.4c-0.5,0-0.8-0.4-0.8-0.9v-0.1l0.3-1.1c-2.6,1.4-5.5,2.5-8.4,2.5
		c-4,0-7.5-2.1-7-7.8c0.1-1.2,0.3-2.5,0.7-3.8l4.4-16.6c0.1-0.6,0.8-1.1,1.3-1.1h4.7c0.6,0,0.8,0.4,0.7,0.9c0,0.1,0,0.1,0,0.2
		L245,27.7c-0.3,1.3-0.6,2.2-0.6,3.1c-0.2,2.1,0.5,2.6,2.9,2.6s5.4-1.2,6.8-1.8l5.4-20.5c0.1-0.6,0.7-1.1,1.3-1.1h4.7
		c0.6,0,0.8,0.4,0.8,0.9C266.2,11,266.2,11.1,266.2,11.1L266.2,11.1z"/>
	<path d="M290.4,22.5l-1,3.9c-2.2,8.5-7.1,12.8-15.5,12.8c-3.3,0-7-0.5-9.9-1.3c-0.9-0.2-1.1-0.5-1.1-1c0-0.1,0-0.2,0.1-0.4L272.2,1
		c0.1-0.6,0.7-1,1.3-1h4.7c0.5,0,0.8,0.4,0.8,0.9c0,0.1,0,0.1,0,0.1l-2.4,9c2-0.2,3.8-0.4,5-0.4c7,0,9.8,3.9,9.3,9.7
		C290.8,20.3,290.7,21.4,290.4,22.5z M280.1,15.2c-1.2,0-3.5,0.1-5,0.4l-4.7,17.8c0.9,0.2,3,0.4,4.8,0.4c4.4,0,6.4-3.5,7.4-7.3
		l1-3.9c0.3-1.1,0.5-2.1,0.6-3C284.4,16.7,283.4,15.2,280.1,15.2L280.1,15.2z"/>
</g>
</svg>
