<svg xmlns="http://www.w3.org/2000/svg" xmlns:xlink="http://www.w3.org/1999/xlink" width="530" height="100" viewBox="0 0 530 100"><defs><clipPath id="b"><rect width="530" height="100"/></clipPath></defs><g id="a" clip-path="url(#b)"><g transform="translate(14.487 14)"><g transform="translate(-4.487)"><path d="M36.418,69.741c-.283,1.272-.942,1.609-2.355,2-3.071.561-15.41.561-20.44.561-8.685,0-15.994-6.138-12.9-17.7C4.938,38.772,15.187,0,15.187,0H28.261L13.981,53.836a23.541,23.541,0,0,0-.452,3.125c-.358,3.743,1.281,4.847,5.652,4.847H36.606c.584,0,1.771.43,1.356,2.04-.716,2.526-1.6,5.894-1.6,5.894M118.48,28.78c2.223,0,6.254.318,8.8.618l-8.59,32.84a65.388,65.388,0,0,1-9.156.561c-6.179,0-8.157-2.358-7.686-7.485a34.724,34.724,0,0,1,1.017-5.82c.358-1.7,1.884-7.26,1.884-7.26,2.3-9.076,5.652-13.417,13.79-13.417M147.642,0h-12.6L129.99,19.274a83.579,83.579,0,0,0-8.835-.561c-15.184,0-24.6,6.475-28.842,23.484,0,0-1.413,5.37-1.884,7.26a23.3,23.3,0,0,0-.867,5.146c-1.017,10.311,4.031,18.376,17.143,18.376a91.1,91.1,0,0,0,19.63-2.358c2.223-.543,2.769-1.067,3.221-2.526Zm19.875,28.78c6.217,0,8.082,2.826,7.536,7.9a22.32,22.32,0,0,1-1.017,5.52l-1.884,7.26c-1.884,6.961-5.539,13.342-13.715,13.342a58.18,58.18,0,0,1-8.911-.561l8.722-32.84c2.769-.3,7.027-.618,9.231-.618M186.507,42.2a37.193,37.193,0,0,0,1.017-5.707c.867-10.61-4.3-17.777-17.294-17.777-2.261,0-5.652.168-9.231.543L166.1,0h-12.49s-15.071,56.9-18.142,68.413c-.49,1.684,1.884,2.058,2,2.115a74.353,74.353,0,0,0,18.368,2.451c15.6,0,24.773-7.878,28.786-23.522l1.884-7.26m59-12.874c5.52,0,7.893,3.031,7.385,8.57a23.081,23.081,0,0,1-.7,4.135l-2.11,7.485c-2.355,8.832-6.782,12.781-13.394,12.781-5.652,0-8.044-3.013-7.536-8.533a31.831,31.831,0,0,1,1.036-4.959c.4-1.871,1.884-6.83,1.884-6.83,2.562-9.356,7.762-12.706,13.564-12.706m19.988,7.841c.9-9.824-4.333-18.376-17.256-18.376-14.807,0-24.622,7.915-28.786,23.3,0,0-1.168,4.229-1.771,6.512a31.971,31.971,0,0,0-1.111,5.614c-.867,9.861,4.3,18.712,17.219,18.712,14.939,0,24.49-7.822,28.729-23.353l1.884-7.279a31.436,31.436,0,0,0,1.017-5.183m51.354-15.812c.9-.786,1.055-2.021-.6-2.021H305a2.832,2.832,0,0,0-2.355,1.141l-20.5,20.209L293.021,0H280.493S267.306,49.719,261.9,70.153a1.47,1.47,0,0,0,.25,1.287,1.492,1.492,0,0,0,1.182.584H272a2.615,2.615,0,0,0,2.393-1.871l5.9-22.324,9.608,22.343a2.765,2.765,0,0,0,2.317,1.871h10.7a1.491,1.491,0,0,0,1.322-.677,1.47,1.47,0,0,0,.072-1.475C302.252,65.494,292.1,44.48,292.1,44.48l24.811-23.241m19.46,8.028c5.143,0,7.78,2.938,7.328,8.383a24.589,24.589,0,0,1-.659,3.537H322.956c1.79-6.83,5.8-11.92,13.413-11.92m18.274,15.157a45.089,45.089,0,0,0,1.3-6.587c.885-10.928-4.239-19.124-16.842-19.124-14.506,0-24.4,6.475-29.125,24.008,0,0-.735,2.564-1.413,5.352a47.959,47.959,0,0,0-1.074,6.082C306.3,68.319,316.1,72.866,324.444,72.866a94.815,94.815,0,0,0,19.121-1.572c1.884-.206,2.148-.879,2.6-2.376,0,0,1.884-7.616,1.884-7.822a154.2,154.2,0,0,1-19.46,1.272c-7.121,0-9.419-3.406-8.948-8.514a20.672,20.672,0,0,1,.772-3.743h30.745c1.319,0,2.148-.786,2.506-2.283,0,0,.32-1.179.848-3.312m43.762-23.933a67.592,67.592,0,0,0-16.484-1.871c-8.967,0-20.063,2.882-21.175,15.382a12.783,12.783,0,0,0,5.124,11.227l10.813,7.8c2.185,1.572,2.863,3.106,2.619,4.6-.264,4.323-3.768,5.127-8.459,5.127-2.129,0-10.606-.374-15.071-.954a2.375,2.375,0,0,0-2.487,1.5l-1.432,5.838a1.525,1.525,0,0,0,.154,1.271,1.545,1.545,0,0,0,1.07.713A75.653,75.653,0,0,0,369.9,73c11.171,0,21.269-4.884,22.362-16.654.414-4.1-.641-7.878-6.028-11.733l-10.342-7.635a4.546,4.546,0,0,1-2.506-3.742c.4-3.967,4.747-4.341,7.536-4.341a109.761,109.761,0,0,1,14.788,1.141c1.62.262,2.185-1.16,2.43-1.871l1.394-5.258a1.711,1.711,0,0,0-.133-1.392,1.732,1.732,0,0,0-1.129-.835m-174.2,0a1.321,1.321,0,0,0-.109-1.283,1.34,1.34,0,0,0-1.153-.588,23.318,23.318,0,0,0-14.694,4.472l.471-1.871a1.414,1.414,0,0,0-.213-1.3,1.435,1.435,0,0,0-1.2-.568h-8.214a2.464,2.464,0,0,0-2.3,1.871s-10.851,40.756-12.942,48.652c-.377,1.329,0,2.3,1.432,2.3h8.5a2.6,2.6,0,0,0,2.393-2L206.08,32.653a29.151,29.151,0,0,1,13.9-3.312A2.615,2.615,0,0,0,222.3,27.47s1.13-4.21,1.771-6.793m-154.252,8.2c-8.157,0-11.718,5.614-13.752,13.342L53.542,51.89a38.915,38.915,0,0,0-.791,3.873c-.471,5.277,2.129,7.036,5.9,7.036a26.232,26.232,0,0,0,12.094-3.93l7.931-29.4a59.185,59.185,0,0,0-8.911-.6m22.795-5.108L80.275,70.3A2.709,2.709,0,0,1,77.9,72.174h-7.63c-1.074,0-1.432-.8-1.243-1.665.264-1.534.546-2.826.546-2.826A24.6,24.6,0,0,1,54.5,72.9c-8.685,0-14.977-5.726-14.035-16.841a53.3,53.3,0,0,1,1.111-5.726c.659-2.994,1.432-6.194,2.016-8.084,3.918-14.689,13.7-23.54,28.918-23.54A71.035,71.035,0,0,1,91.2,21.257c1.432.356,1.733.9,1.356,2.47" transform="translate(0.003 0)" fill="#fff"/><path d="M221.677,38.4a5.883,5.883,0,1,1-5.883-5.883,5.883,5.883,0,0,1,5.883,5.883" transform="translate(182.581 28.395)" fill="#fff"/><path d="M253.257,18.713a89.527,89.527,0,0,0-8.953.543L249.328,0H237.214s-14.617,56.9-17.6,68.413c-.475,1.684,1.827,2.058,1.937,2.115a70.074,70.074,0,0,0,17.815,2.451c15.129,0,24.027-7.822,27.973-23.466l1.827-7.26a40.655,40.655,0,0,0,.987-5.707c.822-10.61-4.184-17.758-16.773-17.758m4.7,17.945a22.941,22.941,0,0,1-.987,5.52l-1.827,7.26c-1.827,6.961-5.372,13.342-13.3,13.342a54.753,54.753,0,0,1-8.642-.561l8.423-32.841c2.7-.3,6.833-.618,8.971-.618,6.03,0,7.838,2.826,7.308,7.9" transform="translate(192.984)" fill="#fff"/><path d="M278.222,10c-14.087,0-23.753,6.322-28.247,23.442,0,0-.731,2.5-1.389,5.226a59.2,59.2,0,0,0-1.023,5.938c-1.151,13.831,8.332,18.271,16.444,18.271a91.667,91.667,0,0,0,18.545-1.535c1.827-.2,2.083-.859,2.521-2.32,0,0,1.827-7.436,1.827-7.637a148.306,148.306,0,0,1-18.874,1.242c-6.888,0-9.136-3.325-8.679-8.313a20.3,20.3,0,0,1,.749-3.654h29.837c1.261,0,2.065-.767,2.412-2.229,0,0,.311-1.151.822-3.234a42.04,42.04,0,0,0,1.261-6.431C295.343,18,290.464,10,278.222,10m4.385,18.564a19.941,19.941,0,0,1-.639,3.453H262.509c1.736-6.669,5.609-11.639,13.009-11.639,4.988,0,7.546,2.869,7.089,8.186" transform="translate(216.072 9.992)" fill="#fff"/></g></g></g></svg>