<?xml version="1.0" encoding="UTF-8"?><svg xmlns="http://www.w3.org/2000/svg" viewBox="0 0 126.52 107.75"><g id="Symbols"><path d="m15.4,46.65c-3.91-2.44-5.72-3.58-5.72-5.97s2.01-3.75,5.02-3.75h6.57l1.96-6.65h-8.68c-7.32,0-12.04,4.15-12.04,10.86s5.02,9.72,9.43,12.45c2.86,1.76,4.92,3.13,4.92,5.85s-2.01,4.32-5.17,4.32c-4.11,0-7.93-2.22-11.69-6.14.45,8.13,5.42,13.02,12.34,13.02,6.52,0,11.74-4.15,11.74-11.54,0-6.76-4.41-9.78-8.68-12.45Z" style="fill:#fff; stroke-width:0px;"/><path d="m51.47,28.23c-3.36,1.65-7.22,2.05-12.29,2.05h-13.74l-1.96,6.65h8.88v33.14h7.07v-33.14h1.51c7.32,0,10.28-4.83,10.53-8.7Z" style="fill:#fff; stroke-width:0px;"/><path d="m69.63,54.44l-7.83-24.5-5.72.34-7.67,23.65c-2.16-.28-4.36-1.14-6.07-2.16.4,2.67,1.51,5.68,4.31,7.5l-3.51,10.8h7.47l2.76-9.44h10.89l2.81,9.72,7.57-.28-2.91-9.09c1.61.11,3.16.51,4.11,1.08-.45-3.64-2.16-6.71-6.22-7.62Zm-14.4-.28l1.96-6.76,1.66-6.54,1.61,6.65,1.91,6.65h-7.12Z" style="fill:#fff; stroke-width:0px;"/><path d="m96.06,52.5c3.41-1.99,6.17-5,6.17-10.57,0-7.62-5.37-11.65-12.94-11.65h-10.99v39.79h7.07v-33.14h2.76c4.06,0,6.67,1.65,6.67,5.51s-3.46,6.02-7.83,6.59l2.61,5.85c2.56,5.8,4.52,9.66,7.68,12.79,1.96,1.93,4.46,2.96,7.88,2.96,1.56,0,3.46-.45,4.51-.97-3.86-1.76-9.58-8.36-13.59-17.17Z" style="fill:#fff; stroke-width:0px;"/><polygon points="105.8 43.84 109.58 43.64 104.46 32.07 111.78 24.61 101.18 26.37 98.23 18.36 96.45 26.57 69.23 26.57 91.75 21.31 97.01 0 104.99 20.17 126.52 16.84 111.09 33.36 122.69 60.13 105.8 43.84" style="fill:#e82b2e; stroke-width:0px;"/><path d="m119.17,81.84l-3.43,20.55c-.51,3.08-3.58,5.36-7.2,5.36H7.37c-4.43,0-7.83-3.37-7.2-7.14l3.43-20.55c.51-3.08,3.58-5.36,7.2-5.36h101.17c4.43,0,7.83,3.37,7.2,7.14Z" style="fill:#28b258; stroke-width:0px;"/></g><g id="Layer_3"><path d="m13.22,96.63c.04-.29.05-.31.08-.37l4.57-.57-.03.2c-.19,1.32.21,1.77,1.58,1.77h3.28c1.37,0,1.9-.46,2.09-1.8l.07-.51c.16-1.12-.18-1.4-1.92-1.69l-4.44-.69c-3.32-.51-4.42-1.77-4.01-4.69l.35-2.43c.49-3.4,2.4-5.09,5.76-5.09h5.74c3.36,0,4.79,1.69,4.31,5.06-.04.26-.04.29-.08.37l-4.57.57.03-.2c.19-1.32-.21-1.77-1.58-1.77h-3.06c-1.39,0-1.96.49-2.14,1.8l-.06.43c-.16,1.14.13,1.37,1.95,1.66l4.44.69c3.35.51,4.4,1.77,3.97,4.75l-.35,2.49c-.49,3.4-2.4,5.09-5.73,5.09h-5.96c-3.34,0-4.77-1.69-4.28-5.06Z" style="fill:#fff; stroke-width:0px;"/><path d="m49.72,86.13l-.42,2.95c-.49,3.4-2.4,5.09-5.76,5.09h-5.77l-1.03,7.23h-4.51l2.91-20.36h10.29c3.36,0,4.79,1.69,4.31,5.09Zm-6.92,4c1.37,0,1.9-.46,2.09-1.8l.21-1.46c.19-1.34-.21-1.8-1.58-1.8h-4.46l-.72,5.06h4.46Z" style="fill:#fff; stroke-width:0px;"/><path d="m68.33,85.85l-1.53,10.75c-.49,3.4-2.4,5.09-5.76,5.09h-5.88c-3.34,0-4.76-1.69-4.28-5.09l1.53-10.75c.49-3.4,2.4-5.09,5.73-5.09h5.88c3.36,0,4.79,1.69,4.31,5.09Zm-6.19-1.06h-3.23c-1.37,0-1.9.46-2.09,1.8l-1.32,9.26c-.19,1.34.21,1.8,1.58,1.8h3.23c1.37,0,1.9-.46,2.09-1.8l1.32-9.26c.19-1.34-.21-1.8-1.58-1.8Z" style="fill:#fff; stroke-width:0px;"/><path d="m72.9,81.04h10.37c3.34,0,4.76,1.69,4.28,5.09l-.4,2.83c-.38,2.66-1.65,4.26-3.81,4.83l4.03,7.61h-5.28l-3.98-7.38h-2.54l-1.05,7.38h-4.51l2.91-20.36Zm7.75,8.95c1.37,0,1.9-.46,2.09-1.8l.19-1.32c.19-1.34-.21-1.8-1.58-1.8h-4.51l-.7,4.92h4.51Z" style="fill:#fff; stroke-width:0px;"/><path d="m95.41,85.08h-5.72l.58-4.03h15.95l-.58,4.03h-5.72l-2.33,16.33h-4.51l2.33-16.33Z" style="fill:#fff; stroke-width:0px;"/></g></svg>